<svg version="1" xmlns="http://www.w3.org/2000/svg" width="538.667" height="538.667" viewBox="0 0 404.000000 404.000000"><path d="M36.9 57.9c-8.6 1.7-14.5 8.2-15.6 17-1.1 9.5 5.8 19.1 15.1 21l3.1.7V123.3l-3 1c-16.1 5.2-18.2 28.3-3.3 35.6l4.4 2.1 165.7.1c177.6 0 168.4.3 172.8-4.7 5.5-6.3 6.6-16.8 2.5-23.9-2.3-3.8-7.2-7.2-12.8-8.9-1.6-.5-1.8-2.1-1.8-14.4V96.3l3.8-.7C378.9 93.9 386 82.3 383 71c-1.5-5.6-7.2-11.4-12.5-12.9-4.5-1.2-327.3-1.4-333.6-.2zM137 89.1c17.1 7.7 20.2 30 6 42.2-9.2 7.8-22.8 7.8-32 0-10.9-9.4-12-26.2-2.2-36.7 6.7-7.2 19.2-9.6 28.2-5.5zm138.7.2c12.5 6.5 17.5 22.3 10.8 34.6-4.8 8.6-12.2 13.1-22 13.1s-17.2-4.5-22-13.1c-7.2-13.4-.9-30.2 13.4-35.6 4.6-1.7 15.5-1.2 19.8 1zM122 283.5V370h55v-70h50v70h55V197l-27.2.2-27.3.3-.3 33.7-.2 33.8h-50l-.2-33.8-.3-33.7-27.2-.3-27.3-.2v86.5z"/></svg>